Coordinates
version=1
nRows=10
nColumns=22
inDegrees=yes

Units are S.I. units (second, meters, Newtons, ...)
If the header above contains a line with 'inDegrees', this indicates whether rotational values are in degrees (yes) or radians (no).

endheader
time	pelvis_tilt	pelvis_list	pelvis_rotation	pelvis_tx	pelvis_ty	pelvis_tz	hip_flexion_r	hip_adduction_r	hip_rotation_r	knee_angle_r	ankle_angle_r	subtalar_angle_r	hip_flexion_l	hip_adduction_l	hip_rotation_l	knee_angle_l	ankle_angle_l	subtalar_angle_l	lumbar_extension	lumbar_bending	lumbar_rotation
      3.83000000	      2.25249096	      3.38619650	    176.43355820	     -0.26505303	      0.97801273	     -0.83380998	     -8.92819037	     -4.33569094	     -4.76495760	    -37.58099377	     -4.43518131	     23.86233140	     28.27690357	     -6.91821661	    -32.98510055	    -24.37738995	      1.07415360	    -13.14225920	     -0.12270829	     -4.14242316	      4.03016162
      3.84000000	      2.11354802	      3.24671840	    176.80634695	     -0.27544134	      0.97992950	     -0.82942607	     -7.77881156	     -4.85076112	     -4.73123451	    -40.20911731	     -5.88752450	     23.45117073	     27.66719473	     -6.31342214	    -32.45649265	    -24.53303864	      1.16567700	    -13.72016786	     -0.32892680	     -4.22834718	      3.87804414
      3.85000000	      1.98950824	      3.08919755	    177.18436786	     -0.28558688	      0.98177736	     -0.82492777	     -6.53358350	     -5.38240702	     -4.68753046	    -42.82645334	     -7.06979377	     23.03081089	     27.00811652	     -5.63146874	    -31.91587294	    -24.52171732	      1.31072241	    -14.25758807	     -0.52313777	     -4.31637932	      3.70899252
      3.86000000	      1.85832283	      2.94310173	    177.55695486	     -0.29554457	      0.98358195	     -0.82038039	     -5.24099570	     -5.89310651	     -4.62542424	    -45.35951773	     -7.99979545	     22.49709703	     26.29301879	     -4.93274990	    -31.39717542	    -24.40268253	      1.52630150	    -14.85078962	     -0.72347847	     -4.37615241	      3.53779764
      3.87000000	      1.74253810	      2.78282868	    177.93589355	     -0.30530182	      0.98529384	     -0.81578819	     -3.88828225	     -6.40374721	     -4.54939457	    -47.78159423	     -8.58412603	     21.97038486	     25.56395512	     -4.19419407	    -30.86510974	    -24.19985692	      1.76382167	    -15.36399268	     -0.90415401	     -4.44401277	      3.35992077
      3.88000000	      1.61656582	      2.63436364	    178.30702958	     -0.31491572	      0.98697747	     -0.81122476	     -2.52545771	     -6.86509561	     -4.41792085	    -50.03024369	     -8.87332007	     21.21637010	     24.79342935	     -3.46388124	    -30.34501793	    -23.93636819	      2.06815152	    -15.92984502	     -1.08542619	     -4.49318687	      3.16017870
      3.89000000	      1.51544810	      2.46176500	    178.69311834	     -0.32435574	      0.98857611	     -0.80664430	     -1.12007266	     -7.32148620	     -4.26765496	    -52.10687802	     -8.78366402	     20.43045344	     24.02777475	     -2.69716806	    -29.79806898	    -23.61440500	      2.36051659	    -16.34516945	     -1.22941855	     -4.56783478	      2.94304702
      3.90000000	      1.41627751	      2.28342632	    179.10129379	     -0.33363126	      0.99011694	     -0.80205032	      0.29060190	     -7.75654231	     -4.12261265	    -53.98695712	     -8.38495512	     19.49418470	     23.25472804	     -1.92926709	    -29.25213179	    -23.27173904	      2.67565925	    -16.67472327	     -1.36570135	     -4.65071872	      2.71889952
      3.91000000	      1.32146735	      2.09646547	    179.53860116	     -0.34273503	      0.99160733	     -0.79743268	      1.70217444	     -8.17372875	     -3.98829606	    -55.66342045	     -7.71799085	     18.44297903	     22.47433832	     -1.15920248	    -28.71317204	    -22.90383053	      2.98117352	    -16.89868799	     -1.49257199	     -4.74715644	      2.48483683
      3.92000000	      1.24731683	      1.88816000	    180.01906555	     -0.35166013	      0.99303328	     -0.79274926	      3.12659586	     -8.59012872	     -3.87123048	    -57.13653981	     -6.84321506	     17.44279488	     21.69614639	     -0.36481520	    -28.16603918	    -22.49049758	      3.22990579	    -17.00558127	     -1.59310329	     -4.87193042	      2.22992492
